<svg xmlns="http://www.w3.org/2000/svg" viewBox="0 0 480 240" width="1440" height="720" shape-rendering="crispEdges"><rect x="0" y="0" width="480" height="240" fill="#f4d45c"/><rect x="0" y="0" width="480" height="240" fill="#e65035"/><rect x="0" y="0" width="2" height="2" fill="#20251f" opacity="0.25"/><rect x="0" y="10" width="2" height="2" fill="#20251f" opacity="0.25"/><rect x="0" y="20" width="2" height="2" fill="#20251f" opacity="0.25"/><rect x="0" y="30" width="2" height="2" fill="#20251f" opacity="0.25"/><rect x="0" y="40" width="2" height="2" fill="#20251f" opacity="0.25"/><rect x="0" y="50" width="2" height="2" fill="#20251f" opacity="0.25"/><rect x="0" y="60" width="2" height="2" fill="#20251f" opacity="0.25"/><rect x="0" y="70" width="2" height="2" fill="#20251f" opacity="0.25"/><rect x="0" y="80" width="2" height="2" fill="#20251f" opacity="0.25"/><rect x="0" y="90" width="2" height="2" fill="#20251f" opacity="0.25"/><rect x="0" y="100" width="2" height="2" fill="#20251f" opacity="0.25"/><rect x="0" y="110" width="2" height="2" fill="#20251f" opacity="0.25"/><rect x="0" y="120" width="2" height="2" fill="#20251f" opacity="0.25"/><rect x="0" y="130" width="2" height="2" fill="#20251f" opacity="0.25"/><rect x="0" y="140" width="2" height="2" fill="#20251f" opacity="0.25"/><rect x="0" y="150" width="2" height="2" fill="#20251f" opacity="0.25"/><rect x="0" y="160" width="2" height="2" fill="#20251f" opacity="0.25"/><rect x="0" y="170" width="2" height="2" fill="#20251f" opacity="0.25"/><rect x="10" y="0" width="2" height="2" fill="#20251f" opacity="0.25"/><rect x="10" y="10" width="2" height="2" fill="#20251f" opacity="0.25"/><rect x="10" y="20" width="2" height="2" fill="#20251f" opacity="0.25"/><rect x="10" y="30" width="2" height="2" fill="#20251f" opacity="0.25"/><rect x="10" y="40" width="2" height="2" fill="#20251f" opacity="0.25"/><rect x="10" y="50" width="2" height="2" fill="#20251f" opacity="0.25"/><rect x="10" y="60" width="2" height="2" fill="#20251f" opacity="0.25"/><rect x="10" y="70" width="2" height="2" fill="#20251f" opacity="0.25"/><rect x="10" y="80" width="2" height="2" fill="#20251f" opacity="0.25"/><rect x="10" y="90" width="2" height="2" fill="#20251f" opacity="0.25"/><rect x="10" y="100" width="2" height="2" fill="#20251f" opacity="0.25"/><rect x="10" y="110" width="2" height="2" fill="#20251f" opacity="0.25"/><rect x="10" y="120" width="2" height="2" fill="#20251f" opacity="0.25"/><rect x="10" y="130" width="2" height="2" fill="#20251f" opacity="0.25"/><rect x="10" y="140" width="2" height="2" fill="#20251f" opacity="0.25"/><rect x="10" y="150" width="2" height="2" fill="#20251f" opacity="0.25"/><rect x="10" y="160" width="2" height="2" fill="#20251f" opacity="0.25"/><rect x="10" y="170" width="2" height="2" fill="#20251f" opacity="0.25"/><rect x="20" y="0" width="2" height="2" fill="#20251f" opacity="0.25"/><rect x="20" y="10" width="2" height="2" fill="#20251f" opacity="0.25"/><rect x="20" y="20" width="2" height="2" fill="#20251f" opacity="0.25"/><rect x="20" y="30" width="2" height="2" fill="#20251f" opacity="0.25"/><rect x="20" y="40" width="2" height="2" fill="#20251f" opacity="0.25"/><rect x="20" y="50" width="2" height="2" fill="#20251f" opacity="0.25"/><rect x="20" y="60" width="2" height="2" fill="#20251f" opacity="0.25"/><rect x="20" y="70" width="2" height="2" fill="#20251f" opacity="0.25"/><rect x="20" y="80" width="2" height="2" fill="#20251f" opacity="0.25"/><rect x="20" y="90" width="2" height="2" fill="#20251f" opacity="0.25"/><rect x="20" y="100" width="2" height="2" fill="#20251f" opacity="0.25"/><rect x="20" y="110" width="2" height="2" fill="#20251f" opacity="0.25"/><rect x="20" y="120" width="2" height="2" fill="#20251f" opacity="0.25"/><rect x="20" y="130" width="2" height="2" fill="#20251f" opacity="0.25"/><rect x="20" y="140" width="2" height="2" fill="#20251f" opacity="0.25"/><rect x="20" y="150" width="2" height="2" fill="#20251f" opacity="0.25"/><rect x="20" y="160" width="2" height="2" fill="#20251f" opacity="0.25"/><rect x="20" y="170" width="2" height="2" fill="#20251f" opacity="0.25"/><rect x="30" y="0" width="2" height="2" fill="#20251f" opacity="0.25"/><rect x="30" y="10" width="2" height="2" fill="#20251f" opacity="0.25"/><rect x="30" y="20" width="2" height="2" fill="#20251f" opacity="0.25"/><rect x="30" y="30" width="2" height="2" fill="#20251f" opacity="0.25"/><rect x="30" y="40" width="2" height="2" fill="#20251f" opacity="0.25"/><rect x="30" y="50" width="2" height="2" fill="#20251f" opacity="0.25"/><rect x="30" y="60" width="2" height="2" fill="#20251f" opacity="0.25"/><rect x="30" y="70" width="2" height="2" fill="#20251f" opacity="0.25"/><rect x="30" y="80" width="2" height="2" fill="#20251f" opacity="0.25"/><rect x="30" y="90" width="2" height="2" fill="#20251f" opacity="0.25"/><rect x="30" y="100" width="2" height="2" fill="#20251f" opacity="0.25"/><rect x="30" y="110" width="2" height="2" fill="#20251f" opacity="0.25"/><rect x="30" y="120" width="2" height="2" fill="#20251f" opacity="0.25"/><rect x="30" y="130" width="2" height="2" fill="#20251f" opacity="0.25"/><rect x="30" y="140" width="2" height="2" fill="#20251f" opacity="0.25"/><rect x="30" y="150" width="2" height="2" fill="#20251f" opacity="0.25"/><rect x="30" y="160" width="2" height="2" fill="#20251f" opacity="0.25"/><rect x="30" y="170" width="2" height="2" fill="#20251f" opacity="0.25"/><rect x="40" y="0" width="2" height="2" fill="#20251f" opacity="0.25"/><rect x="40" y="10" width="2" height="2" fill="#20251f" opacity="0.25"/><rect x="40" y="20" width="2" height="2" fill="#20251f" opacity="0.25"/><rect x="40" y="30" width="2" height="2" fill="#20251f" opacity="0.25"/><rect x="40" y="40" width="2" height="2" fill="#20251f" opacity="0.25"/><rect x="40" y="50" width="2" height="2" fill="#20251f" opacity="0.25"/><rect x="40" y="60" width="2" height="2" fill="#20251f" opacity="0.25"/><rect x="40" y="70" width="2" height="2" fill="#20251f" opacity="0.25"/><rect x="40" y="80" width="2" height="2" fill="#20251f" opacity="0.25"/><rect x="40" y="90" width="2" height="2" fill="#20251f" opacity="0.25"/><rect x="40" y="100" width="2" height="2" fill="#20251f" opacity="0.25"/><rect x="40" y="110" width="2" height="2" fill="#20251f" opacity="0.25"/><rect x="40" y="120" width="2" height="2" fill="#20251f" opacity="0.25"/><rect x="40" y="130" width="2" height="2" fill="#20251f" opacity="0.25"/><rect x="40" y="140" width="2" height="2" fill="#20251f" opacity="0.25"/><rect x="40" y="150" width="2" height="2" fill="#20251f" opacity="0.25"/><rect x="40" y="160" width="2" height="2" fill="#20251f" opacity="0.25"/><rect x="40" y="170" width="2" height="2" fill="#20251f" opacity="0.25"/><rect x="50" y="0" width="2" height="2" fill="#20251f" opacity="0.25"/><rect x="50" y="10" width="2" height="2" fill="#20251f" opacity="0.25"/><rect x="50" y="20" width="2" height="2" fill="#20251f" opacity="0.25"/><rect x="50" y="30" width="2" height="2" fill="#20251f" opacity="0.25"/><rect x="50" y="40" width="2" height="2" fill="#20251f" opacity="0.25"/><rect x="50" y="50" width="2" height="2" fill="#20251f" opacity="0.25"/><rect x="50" y="60" width="2" height="2" fill="#20251f" opacity="0.25"/><rect x="50" y="70" width="2" height="2" fill="#20251f" opacity="0.25"/><rect x="50" y="80" width="2" height="2" fill="#20251f" opacity="0.25"/><rect x="50" y="90" width="2" height="2" fill="#20251f" opacity="0.25"/><rect x="50" y="100" width="2" height="2" fill="#20251f" opacity="0.25"/><rect x="50" y="110" width="2" height="2" fill="#20251f" opacity="0.25"/><rect x="50" y="120" width="2" height="2" fill="#20251f" opacity="0.25"/><rect x="50" y="130" width="2" height="2" fill="#20251f" opacity="0.25"/><rect x="50" y="140" width="2" height="2" fill="#20251f" opacity="0.25"/><rect x="50" y="150" width="2" height="2" fill="#20251f" opacity="0.25"/><rect x="50" y="160" width="2" height="2" fill="#20251f" opacity="0.25"/><rect x="50" y="170" width="2" height="2" fill="#20251f" opacity="0.25"/><rect x="60" y="0" width="2" height="2" fill="#20251f" opacity="0.25"/><rect x="60" y="10" width="2" height="2" fill="#20251f" opacity="0.25"/><rect x="60" y="20" width="2" height="2" fill="#20251f" opacity="0.25"/><rect x="60" y="30" width="2" height="2" fill="#20251f" opacity="0.25"/><rect x="60" y="40" width="2" height="2" fill="#20251f" opacity="0.25"/><rect x="60" y="50" width="2" height="2" fill="#20251f" opacity="0.25"/><rect x="60" y="60" width="2" height="2" fill="#20251f" opacity="0.25"/><rect x="60" y="70" width="2" height="2" fill="#20251f" opacity="0.25"/><rect x="60" y="80" width="2" height="2" fill="#20251f" opacity="0.25"/><rect x="60" y="90" width="2" height="2" fill="#20251f" opacity="0.25"/><rect x="60" y="100" width="2" height="2" fill="#20251f" opacity="0.25"/><rect x="60" y="110" width="2" height="2" fill="#20251f" opacity="0.25"/><rect x="60" y="120" width="2" height="2" fill="#20251f" opacity="0.25"/><rect x="60" y="130" width="2" height="2" fill="#20251f" opacity="0.25"/><rect x="60" y="140" width="2" height="2" fill="#20251f" opacity="0.25"/><rect x="60" y="150" width="2" height="2" fill="#20251f" opacity="0.25"/><rect x="60" y="160" width="2" height="2" fill="#20251f" opacity="0.25"/><rect x="60" y="170" width="2" height="2" fill="#20251f" opacity="0.25"/><rect x="70" y="0" width="2" height="2" fill="#20251f" opacity="0.25"/><rect x="70" y="10" width="2" height="2" fill="#20251f" opacity="0.25"/><rect x="70" y="20" width="2" height="2" fill="#20251f" opacity="0.25"/><rect x="70" y="30" width="2" height="2" fill="#20251f" opacity="0.25"/><rect x="70" y="40" width="2" height="2" fill="#20251f" opacity="0.25"/><rect x="70" y="50" width="2" height="2" fill="#20251f" opacity="0.25"/><rect x="70" y="60" width="2" height="2" fill="#20251f" opacity="0.25"/><rect x="70" y="70" width="2" height="2" fill="#20251f" opacity="0.25"/><rect x="70" y="80" width="2" height="2" fill="#20251f" opacity="0.25"/><rect x="70" y="90" width="2" height="2" fill="#20251f" opacity="0.25"/><rect x="70" y="100" width="2" height="2" fill="#20251f" opacity="0.25"/><rect x="70" y="110" width="2" height="2" fill="#20251f" opacity="0.25"/><rect x="70" y="120" width="2" height="2" fill="#20251f" opacity="0.25"/><rect x="70" y="130" width="2" height="2" fill="#20251f" opacity="0.25"/><rect x="70" y="140" width="2" height="2" fill="#20251f" opacity="0.25"/><rect x="70" y="150" width="2" height="2" fill="#20251f" opacity="0.25"/><rect x="70" y="160" width="2" height="2" fill="#20251f" opacity="0.25"/><rect x="70" y="170" width="2" height="2" fill="#20251f" opacity="0.25"/><rect x="80" y="0" width="2" height="2" fill="#20251f" opacity="0.25"/><rect x="80" y="10" width="2" height="2" fill="#20251f" opacity="0.25"/><rect x="80" y="20" width="2" height="2" fill="#20251f" opacity="0.25"/><rect x="80" y="30" width="2" height="2" fill="#20251f" opacity="0.25"/><rect x="80" y="40" width="2" height="2" fill="#20251f" opacity="0.25"/><rect x="80" y="50" width="2" height="2" fill="#20251f" opacity="0.25"/><rect x="80" y="60" width="2" height="2" fill="#20251f" opacity="0.25"/><rect x="80" y="70" width="2" height="2" fill="#20251f" opacity="0.25"/><rect x="80" y="80" width="2" height="2" fill="#20251f" opacity="0.25"/><rect x="80" y="90" width="2" height="2" fill="#20251f" opacity="0.25"/><rect x="80" y="100" width="2" height="2" fill="#20251f" opacity="0.25"/><rect x="80" y="110" width="2" height="2" fill="#20251f" opacity="0.25"/><rect x="80" y="120" width="2" height="2" fill="#20251f" opacity="0.25"/><rect x="80" y="130" width="2" height="2" fill="#20251f" opacity="0.25"/><rect x="80" y="140" width="2" height="2" fill="#20251f" opacity="0.25"/><rect x="80" y="150" width="2" height="2" fill="#20251f" opacity="0.25"/><rect x="80" y="160" width="2" height="2" fill="#20251f" opacity="0.25"/><rect x="80" y="170" width="2" height="2" fill="#20251f" opacity="0.25"/><rect x="90" y="0" width="2" height="2" fill="#20251f" opacity="0.25"/><rect x="90" y="10" width="2" height="2" fill="#20251f" opacity="0.25"/><rect x="90" y="20" width="2" height="2" fill="#20251f" opacity="0.25"/><rect x="90" y="30" width="2" height="2" fill="#20251f" opacity="0.25"/><rect x="90" y="40" width="2" height="2" fill="#20251f" opacity="0.25"/><rect x="90" y="50" width="2" height="2" fill="#20251f" opacity="0.25"/><rect x="90" y="60" width="2" height="2" fill="#20251f" opacity="0.25"/><rect x="90" y="70" width="2" height="2" fill="#20251f" opacity="0.25"/><rect x="90" y="80" width="2" height="2" fill="#20251f" opacity="0.25"/><rect x="90" y="90" width="2" height="2" fill="#20251f" opacity="0.25"/><rect x="90" y="100" width="2" height="2" fill="#20251f" opacity="0.25"/><rect x="90" y="110" width="2" height="2" fill="#20251f" opacity="0.25"/><rect x="90" y="120" width="2" height="2" fill="#20251f" opacity="0.25"/><rect x="90" y="130" width="2" height="2" fill="#20251f" opacity="0.25"/><rect x="90" y="140" width="2" height="2" fill="#20251f" opacity="0.25"/><rect x="90" y="150" width="2" height="2" fill="#20251f" opacity="0.25"/><rect x="90" y="160" width="2" height="2" fill="#20251f" opacity="0.25"/><rect x="90" y="170" width="2" height="2" fill="#20251f" opacity="0.25"/><rect x="100" y="0" width="2" height="2" fill="#20251f" opacity="0.25"/><rect x="100" y="10" width="2" height="2" fill="#20251f" opacity="0.25"/><rect x="100" y="20" width="2" height="2" fill="#20251f" opacity="0.25"/><rect x="100" y="30" width="2" height="2" fill="#20251f" opacity="0.25"/><rect x="100" y="40" width="2" height="2" fill="#20251f" opacity="0.25"/><rect x="100" y="50" width="2" height="2" fill="#20251f" opacity="0.25"/><rect x="100" y="60" width="2" height="2" fill="#20251f" opacity="0.25"/><rect x="100" y="70" width="2" height="2" fill="#20251f" opacity="0.25"/><rect x="100" y="80" width="2" height="2" fill="#20251f" opacity="0.25"/><rect x="100" y="90" width="2" height="2" fill="#20251f" opacity="0.25"/><rect x="100" y="100" width="2" height="2" fill="#20251f" opacity="0.25"/><rect x="100" y="110" width="2" height="2" fill="#20251f" opacity="0.25"/><rect x="100" y="120" width="2" height="2" fill="#20251f" opacity="0.25"/><rect x="100" y="130" width="2" height="2" fill="#20251f" opacity="0.25"/><rect x="100" y="140" width="2" height="2" fill="#20251f" opacity="0.25"/><rect x="100" y="150" width="2" height="2" fill="#20251f" opacity="0.25"/><rect x="100" y="160" width="2" height="2" fill="#20251f" opacity="0.25"/><rect x="100" y="170" width="2" height="2" fill="#20251f" opacity="0.25"/><rect x="110" y="0" width="2" height="2" fill="#20251f" opacity="0.25"/><rect x="110" y="10" width="2" height="2" fill="#20251f" opacity="0.25"/><rect x="110" y="20" width="2" height="2" fill="#20251f" opacity="0.25"/><rect x="110" y="30" width="2" height="2" fill="#20251f" opacity="0.25"/><rect x="110" y="40" width="2" height="2" fill="#20251f" opacity="0.25"/><rect x="110" y="50" width="2" height="2" fill="#20251f" opacity="0.25"/><rect x="110" y="60" width="2" height="2" fill="#20251f" opacity="0.25"/><rect x="110" y="70" width="2" height="2" fill="#20251f" opacity="0.25"/><rect x="110" y="80" width="2" height="2" fill="#20251f" opacity="0.25"/><rect x="110" y="90" width="2" height="2" fill="#20251f" opacity="0.25"/><rect x="110" y="100" width="2" height="2" fill="#20251f" opacity="0.25"/><rect x="110" y="110" width="2" height="2" fill="#20251f" opacity="0.25"/><rect x="110" y="120" width="2" height="2" fill="#20251f" opacity="0.25"/><rect x="110" y="130" width="2" height="2" fill="#20251f" opacity="0.25"/><rect x="110" y="140" width="2" height="2" fill="#20251f" opacity="0.25"/><rect x="110" y="150" width="2" height="2" fill="#20251f" opacity="0.25"/><rect x="110" y="160" width="2" height="2" fill="#20251f" opacity="0.25"/><rect x="110" y="170" width="2" height="2" fill="#20251f" opacity="0.25"/><rect x="120" y="0" width="2" height="2" fill="#20251f" opacity="0.25"/><rect x="120" y="10" width="2" height="2" fill="#20251f" opacity="0.25"/><rect x="120" y="20" width="2" height="2" fill="#20251f" opacity="0.25"/><rect x="120" y="30" width="2" height="2" fill="#20251f" opacity="0.25"/><rect x="120" y="40" width="2" height="2" fill="#20251f" opacity="0.25"/><rect x="120" y="50" width="2" height="2" fill="#20251f" opacity="0.25"/><rect x="120" y="60" width="2" height="2" fill="#20251f" opacity="0.25"/><rect x="120" y="70" width="2" height="2" fill="#20251f" opacity="0.25"/><rect x="120" y="80" width="2" height="2" fill="#20251f" opacity="0.25"/><rect x="120" y="90" width="2" height="2" fill="#20251f" opacity="0.25"/><rect x="120" y="100" width="2" height="2" fill="#20251f" opacity="0.25"/><rect x="120" y="110" width="2" height="2" fill="#20251f" opacity="0.25"/><rect x="120" y="120" width="2" height="2" fill="#20251f" opacity="0.25"/><rect x="120" y="130" width="2" height="2" fill="#20251f" opacity="0.25"/><rect x="120" y="140" width="2" height="2" fill="#20251f" opacity="0.25"/><rect x="120" y="150" width="2" height="2" fill="#20251f" opacity="0.25"/><rect x="120" y="160" width="2" height="2" fill="#20251f" opacity="0.25"/><rect x="120" y="170" width="2" height="2" fill="#20251f" opacity="0.25"/><rect x="130" y="0" width="2" height="2" fill="#20251f" opacity="0.25"/><rect x="130" y="10" width="2" height="2" fill="#20251f" opacity="0.25"/><rect x="130" y="20" width="2" height="2" fill="#20251f" opacity="0.25"/><rect x="130" y="30" width="2" height="2" fill="#20251f" opacity="0.25"/><rect x="130" y="40" width="2" height="2" fill="#20251f" opacity="0.25"/><rect x="130" y="50" width="2" height="2" fill="#20251f" opacity="0.25"/><rect x="130" y="60" width="2" height="2" fill="#20251f" opacity="0.25"/><rect x="140" y="0" width="2" height="2" fill="#20251f" opacity="0.25"/><rect x="140" y="10" width="2" height="2" fill="#20251f" opacity="0.25"/><rect x="140" y="20" width="2" height="2" fill="#20251f" opacity="0.25"/><rect x="140" y="30" width="2" height="2" fill="#20251f" opacity="0.25"/><rect x="140" y="40" width="2" height="2" fill="#20251f" opacity="0.25"/><rect x="140" y="50" width="2" height="2" fill="#20251f" opacity="0.25"/><rect x="140" y="60" width="2" height="2" fill="#20251f" opacity="0.25"/><rect x="150" y="0" width="2" height="2" fill="#20251f" opacity="0.25"/><rect x="150" y="10" width="2" height="2" fill="#20251f" opacity="0.25"/><rect x="150" y="20" width="2" height="2" fill="#20251f" opacity="0.25"/><rect x="150" y="30" width="2" height="2" fill="#20251f" opacity="0.25"/><rect x="150" y="40" width="2" height="2" fill="#20251f" opacity="0.25"/><rect x="150" y="50" width="2" height="2" fill="#20251f" opacity="0.25"/><rect x="150" y="60" width="2" height="2" fill="#20251f" opacity="0.25"/><rect x="160" y="0" width="2" height="2" fill="#20251f" opacity="0.25"/><rect x="160" y="10" width="2" height="2" fill="#20251f" opacity="0.25"/><rect x="160" y="20" width="2" height="2" fill="#20251f" opacity="0.25"/><rect x="160" y="30" width="2" height="2" fill="#20251f" opacity="0.25"/><rect x="160" y="40" width="2" height="2" fill="#20251f" opacity="0.25"/><rect x="160" y="50" width="2" height="2" fill="#20251f" opacity="0.25"/><rect x="160" y="60" width="2" height="2" fill="#20251f" opacity="0.25"/><rect x="170" y="0" width="2" height="2" fill="#20251f" opacity="0.25"/><rect x="170" y="10" width="2" height="2" fill="#20251f" opacity="0.25"/><rect x="170" y="20" width="2" height="2" fill="#20251f" opacity="0.25"/><rect x="170" y="30" width="2" height="2" fill="#20251f" opacity="0.25"/><rect x="170" y="40" width="2" height="2" fill="#20251f" opacity="0.25"/><rect x="170" y="50" width="2" height="2" fill="#20251f" opacity="0.25"/><rect x="170" y="60" width="2" height="2" fill="#20251f" opacity="0.25"/><rect x="180" y="0" width="2" height="2" fill="#20251f" opacity="0.25"/><rect x="180" y="10" width="2" height="2" fill="#20251f" opacity="0.25"/><rect x="180" y="20" width="2" height="2" fill="#20251f" opacity="0.25"/><rect x="180" y="30" width="2" height="2" fill="#20251f" opacity="0.25"/><rect x="180" y="40" width="2" height="2" fill="#20251f" opacity="0.25"/><rect x="180" y="50" width="2" height="2" fill="#20251f" opacity="0.25"/><rect x="180" y="60" width="2" height="2" fill="#20251f" opacity="0.25"/><rect x="190" y="0" width="2" height="2" fill="#20251f" opacity="0.25"/><rect x="190" y="10" width="2" height="2" fill="#20251f" opacity="0.25"/><rect x="190" y="20" width="2" height="2" fill="#20251f" opacity="0.25"/><rect x="190" y="30" width="2" height="2" fill="#20251f" opacity="0.25"/><rect x="190" y="40" width="2" height="2" fill="#20251f" opacity="0.25"/><rect x="190" y="50" width="2" height="2" fill="#20251f" opacity="0.25"/><rect x="190" y="60" width="2" height="2" fill="#20251f" opacity="0.25"/><rect x="200" y="0" width="2" height="2" fill="#20251f" opacity="0.25"/><rect x="200" y="10" width="2" height="2" fill="#20251f" opacity="0.25"/><rect x="200" y="20" width="2" height="2" fill="#20251f" opacity="0.25"/><rect x="200" y="30" width="2" height="2" fill="#20251f" opacity="0.25"/><rect x="200" y="40" width="2" height="2" fill="#20251f" opacity="0.25"/><rect x="200" y="50" width="2" height="2" fill="#20251f" opacity="0.25"/><rect x="200" y="60" width="2" height="2" fill="#20251f" opacity="0.25"/><rect x="210" y="0" width="2" height="2" fill="#20251f" opacity="0.25"/><rect x="210" y="10" width="2" height="2" fill="#20251f" opacity="0.25"/><rect x="210" y="20" width="2" height="2" fill="#20251f" opacity="0.25"/><rect x="210" y="30" width="2" height="2" fill="#20251f" opacity="0.25"/><rect x="210" y="40" width="2" height="2" fill="#20251f" opacity="0.25"/><rect x="210" y="50" width="2" height="2" fill="#20251f" opacity="0.25"/><rect x="210" y="60" width="2" height="2" fill="#20251f" opacity="0.25"/><rect x="220" y="0" width="2" height="2" fill="#20251f" opacity="0.25"/><rect x="220" y="10" width="2" height="2" fill="#20251f" opacity="0.25"/><rect x="220" y="20" width="2" height="2" fill="#20251f" opacity="0.25"/><rect x="220" y="30" width="2" height="2" fill="#20251f" opacity="0.25"/><rect x="220" y="40" width="2" height="2" fill="#20251f" opacity="0.25"/><rect x="220" y="50" width="2" height="2" fill="#20251f" opacity="0.25"/><rect x="220" y="60" width="2" height="2" fill="#20251f" opacity="0.25"/><rect x="230" y="0" width="2" height="2" fill="#20251f" opacity="0.25"/><rect x="230" y="10" width="2" height="2" fill="#20251f" opacity="0.25"/><rect x="230" y="20" width="2" height="2" fill="#20251f" opacity="0.25"/><rect x="230" y="30" width="2" height="2" fill="#20251f" opacity="0.25"/><rect x="230" y="40" width="2" height="2" fill="#20251f" opacity="0.25"/><rect x="230" y="50" width="2" height="2" fill="#20251f" opacity="0.25"/><rect x="230" y="60" width="2" height="2" fill="#20251f" opacity="0.25"/><rect x="240" y="0" width="2" height="2" fill="#20251f" opacity="0.25"/><rect x="240" y="10" width="2" height="2" fill="#20251f" opacity="0.25"/><rect x="240" y="20" width="2" height="2" fill="#20251f" opacity="0.25"/><rect x="240" y="30" width="2" height="2" fill="#20251f" opacity="0.25"/><rect x="240" y="40" width="2" height="2" fill="#20251f" opacity="0.25"/><rect x="240" y="50" width="2" height="2" fill="#20251f" opacity="0.25"/><rect x="240" y="60" width="2" height="2" fill="#20251f" opacity="0.25"/><rect x="250" y="0" width="2" height="2" fill="#20251f" opacity="0.25"/><rect x="250" y="10" width="2" height="2" fill="#20251f" opacity="0.25"/><rect x="250" y="20" width="2" height="2" fill="#20251f" opacity="0.25"/><rect x="250" y="30" width="2" height="2" fill="#20251f" opacity="0.25"/><rect x="250" y="40" width="2" height="2" fill="#20251f" opacity="0.25"/><rect x="250" y="50" width="2" height="2" fill="#20251f" opacity="0.25"/><rect x="250" y="60" width="2" height="2" fill="#20251f" opacity="0.25"/><rect x="260" y="0" width="2" height="2" fill="#20251f" opacity="0.25"/><rect x="260" y="10" width="2" height="2" fill="#20251f" opacity="0.25"/><rect x="260" y="20" width="2" height="2" fill="#20251f" opacity="0.25"/><rect x="260" y="30" width="2" height="2" fill="#20251f" opacity="0.25"/><rect x="260" y="40" width="2" height="2" fill="#20251f" opacity="0.25"/><rect x="260" y="50" width="2" height="2" fill="#20251f" opacity="0.25"/><rect x="260" y="60" width="2" height="2" fill="#20251f" opacity="0.25"/><rect x="270" y="0" width="2" height="2" fill="#20251f" opacity="0.25"/><rect x="270" y="10" width="2" height="2" fill="#20251f" opacity="0.25"/><rect x="270" y="20" width="2" height="2" fill="#20251f" opacity="0.25"/><rect x="270" y="30" width="2" height="2" fill="#20251f" opacity="0.25"/><rect x="270" y="40" width="2" height="2" fill="#20251f" opacity="0.25"/><rect x="270" y="50" width="2" height="2" fill="#20251f" opacity="0.25"/><rect x="270" y="60" width="2" height="2" fill="#20251f" opacity="0.25"/><rect x="280" y="0" width="2" height="2" fill="#20251f" opacity="0.25"/><rect x="280" y="10" width="2" height="2" fill="#20251f" opacity="0.25"/><rect x="280" y="20" width="2" height="2" fill="#20251f" opacity="0.25"/><rect x="280" y="30" width="2" height="2" fill="#20251f" opacity="0.25"/><rect x="280" y="40" width="2" height="2" fill="#20251f" opacity="0.25"/><rect x="280" y="50" width="2" height="2" fill="#20251f" opacity="0.25"/><rect x="280" y="60" width="2" height="2" fill="#20251f" opacity="0.25"/><rect x="290" y="0" width="2" height="2" fill="#20251f" opacity="0.25"/><rect x="290" y="10" width="2" height="2" fill="#20251f" opacity="0.25"/><rect x="290" y="20" width="2" height="2" fill="#20251f" opacity="0.25"/><rect x="290" y="30" width="2" height="2" fill="#20251f" opacity="0.25"/><rect x="290" y="40" width="2" height="2" fill="#20251f" opacity="0.25"/><rect x="290" y="50" width="2" height="2" fill="#20251f" opacity="0.25"/><rect x="290" y="60" width="2" height="2" fill="#20251f" opacity="0.25"/><rect x="300" y="0" width="2" height="2" fill="#20251f" opacity="0.25"/><rect x="300" y="10" width="2" height="2" fill="#20251f" opacity="0.25"/><rect x="300" y="20" width="2" height="2" fill="#20251f" opacity="0.25"/><rect x="300" y="30" width="2" height="2" fill="#20251f" opacity="0.25"/><rect x="300" y="40" width="2" height="2" fill="#20251f" opacity="0.25"/><rect x="300" y="50" width="2" height="2" fill="#20251f" opacity="0.25"/><rect x="300" y="60" width="2" height="2" fill="#20251f" opacity="0.25"/><rect x="310" y="0" width="2" height="2" fill="#20251f" opacity="0.25"/><rect x="310" y="10" width="2" height="2" fill="#20251f" opacity="0.25"/><rect x="310" y="20" width="2" height="2" fill="#20251f" opacity="0.25"/><rect x="310" y="30" width="2" height="2" fill="#20251f" opacity="0.25"/><rect x="310" y="40" width="2" height="2" fill="#20251f" opacity="0.25"/><rect x="310" y="50" width="2" height="2" fill="#20251f" opacity="0.25"/><rect x="310" y="60" width="2" height="2" fill="#20251f" opacity="0.25"/><rect x="320" y="0" width="2" height="2" fill="#20251f" opacity="0.25"/><rect x="320" y="10" width="2" height="2" fill="#20251f" opacity="0.25"/><rect x="320" y="20" width="2" height="2" fill="#20251f" opacity="0.25"/><rect x="320" y="30" width="2" height="2" fill="#20251f" opacity="0.25"/><rect x="320" y="40" width="2" height="2" fill="#20251f" opacity="0.25"/><rect x="320" y="50" width="2" height="2" fill="#20251f" opacity="0.25"/><rect x="320" y="60" width="2" height="2" fill="#20251f" opacity="0.25"/><rect x="330" y="0" width="2" height="2" fill="#20251f" opacity="0.25"/><rect x="330" y="10" width="2" height="2" fill="#20251f" opacity="0.25"/><rect x="330" y="20" width="2" height="2" fill="#20251f" opacity="0.25"/><rect x="330" y="30" width="2" height="2" fill="#20251f" opacity="0.25"/><rect x="330" y="40" width="2" height="2" fill="#20251f" opacity="0.25"/><rect x="330" y="50" width="2" height="2" fill="#20251f" opacity="0.25"/><rect x="330" y="60" width="2" height="2" fill="#20251f" opacity="0.25"/><rect x="340" y="0" width="2" height="2" fill="#20251f" opacity="0.25"/><rect x="340" y="10" width="2" height="2" fill="#20251f" opacity="0.25"/><rect x="340" y="20" width="2" height="2" fill="#20251f" opacity="0.25"/><rect x="340" y="30" width="2" height="2" fill="#20251f" opacity="0.25"/><rect x="340" y="40" width="2" height="2" fill="#20251f" opacity="0.25"/><rect x="340" y="50" width="2" height="2" fill="#20251f" opacity="0.25"/><rect x="340" y="60" width="2" height="2" fill="#20251f" opacity="0.25"/><rect x="350" y="0" width="2" height="2" fill="#20251f" opacity="0.25"/><rect x="350" y="10" width="2" height="2" fill="#20251f" opacity="0.25"/><rect x="350" y="20" width="2" height="2" fill="#20251f" opacity="0.25"/><rect x="350" y="30" width="2" height="2" fill="#20251f" opacity="0.25"/><rect x="350" y="40" width="2" height="2" fill="#20251f" opacity="0.25"/><rect x="350" y="50" width="2" height="2" fill="#20251f" opacity="0.25"/><rect x="350" y="60" width="2" height="2" fill="#20251f" opacity="0.25"/><rect x="360" y="0" width="2" height="2" fill="#20251f" opacity="0.25"/><rect x="360" y="10" width="2" height="2" fill="#20251f" opacity="0.25"/><rect x="360" y="20" width="2" height="2" fill="#20251f" opacity="0.25"/><rect x="360" y="30" width="2" height="2" fill="#20251f" opacity="0.25"/><rect x="360" y="40" width="2" height="2" fill="#20251f" opacity="0.25"/><rect x="360" y="50" width="2" height="2" fill="#20251f" opacity="0.25"/><rect x="360" y="60" width="2" height="2" fill="#20251f" opacity="0.25"/><rect x="360" y="70" width="2" height="2" fill="#20251f" opacity="0.25"/><rect x="360" y="80" width="2" height="2" fill="#20251f" opacity="0.25"/><rect x="360" y="90" width="2" height="2" fill="#20251f" opacity="0.25"/><rect x="360" y="100" width="2" height="2" fill="#20251f" opacity="0.25"/><rect x="360" y="110" width="2" height="2" fill="#20251f" opacity="0.25"/><rect x="360" y="120" width="2" height="2" fill="#20251f" opacity="0.25"/><rect x="360" y="130" width="2" height="2" fill="#20251f" opacity="0.25"/><rect x="360" y="140" width="2" height="2" fill="#20251f" opacity="0.25"/><rect x="360" y="150" width="2" height="2" fill="#20251f" opacity="0.25"/><rect x="360" y="160" width="2" height="2" fill="#20251f" opacity="0.25"/><rect x="360" y="170" width="2" height="2" fill="#20251f" opacity="0.25"/><rect x="370" y="0" width="2" height="2" fill="#20251f" opacity="0.25"/><rect x="370" y="10" width="2" height="2" fill="#20251f" opacity="0.25"/><rect x="370" y="20" width="2" height="2" fill="#20251f" opacity="0.25"/><rect x="370" y="30" width="2" height="2" fill="#20251f" opacity="0.25"/><rect x="370" y="40" width="2" height="2" fill="#20251f" opacity="0.25"/><rect x="370" y="50" width="2" height="2" fill="#20251f" opacity="0.25"/><rect x="370" y="60" width="2" height="2" fill="#20251f" opacity="0.25"/><rect x="370" y="70" width="2" height="2" fill="#20251f" opacity="0.25"/><rect x="370" y="80" width="2" height="2" fill="#20251f" opacity="0.25"/><rect x="370" y="90" width="2" height="2" fill="#20251f" opacity="0.25"/><rect x="370" y="100" width="2" height="2" fill="#20251f" opacity="0.25"/><rect x="370" y="110" width="2" height="2" fill="#20251f" opacity="0.25"/><rect x="370" y="120" width="2" height="2" fill="#20251f" opacity="0.25"/><rect x="370" y="130" width="2" height="2" fill="#20251f" opacity="0.25"/><rect x="370" y="140" width="2" height="2" fill="#20251f" opacity="0.25"/><rect x="370" y="150" width="2" height="2" fill="#20251f" opacity="0.25"/><rect x="370" y="160" width="2" height="2" fill="#20251f" opacity="0.25"/><rect x="370" y="170" width="2" height="2" fill="#20251f" opacity="0.25"/><rect x="380" y="0" width="2" height="2" fill="#20251f" opacity="0.25"/><rect x="380" y="10" width="2" height="2" fill="#20251f" opacity="0.25"/><rect x="380" y="20" width="2" height="2" fill="#20251f" opacity="0.25"/><rect x="380" y="30" width="2" height="2" fill="#20251f" opacity="0.25"/><rect x="380" y="40" width="2" height="2" fill="#20251f" opacity="0.25"/><rect x="380" y="50" width="2" height="2" fill="#20251f" opacity="0.25"/><rect x="380" y="60" width="2" height="2" fill="#20251f" opacity="0.25"/><rect x="380" y="70" width="2" height="2" fill="#20251f" opacity="0.25"/><rect x="380" y="80" width="2" height="2" fill="#20251f" opacity="0.25"/><rect x="380" y="90" width="2" height="2" fill="#20251f" opacity="0.25"/><rect x="380" y="100" width="2" height="2" fill="#20251f" opacity="0.25"/><rect x="380" y="110" width="2" height="2" fill="#20251f" opacity="0.25"/><rect x="380" y="120" width="2" height="2" fill="#20251f" opacity="0.25"/><rect x="380" y="130" width="2" height="2" fill="#20251f" opacity="0.25"/><rect x="380" y="140" width="2" height="2" fill="#20251f" opacity="0.25"/><rect x="380" y="150" width="2" height="2" fill="#20251f" opacity="0.25"/><rect x="380" y="160" width="2" height="2" fill="#20251f" opacity="0.25"/><rect x="380" y="170" width="2" height="2" fill="#20251f" opacity="0.25"/><rect x="390" y="0" width="2" height="2" fill="#20251f" opacity="0.25"/><rect x="390" y="10" width="2" height="2" fill="#20251f" opacity="0.25"/><rect x="390" y="20" width="2" height="2" fill="#20251f" opacity="0.25"/><rect x="390" y="30" width="2" height="2" fill="#20251f" opacity="0.25"/><rect x="390" y="40" width="2" height="2" fill="#20251f" opacity="0.25"/><rect x="390" y="50" width="2" height="2" fill="#20251f" opacity="0.25"/><rect x="390" y="60" width="2" height="2" fill="#20251f" opacity="0.25"/><rect x="390" y="70" width="2" height="2" fill="#20251f" opacity="0.25"/><rect x="390" y="80" width="2" height="2" fill="#20251f" opacity="0.25"/><rect x="390" y="90" width="2" height="2" fill="#20251f" opacity="0.25"/><rect x="390" y="100" width="2" height="2" fill="#20251f" opacity="0.25"/><rect x="390" y="110" width="2" height="2" fill="#20251f" opacity="0.25"/><rect x="390" y="120" width="2" height="2" fill="#20251f" opacity="0.25"/><rect x="390" y="130" width="2" height="2" fill="#20251f" opacity="0.25"/><rect x="390" y="140" width="2" height="2" fill="#20251f" opacity="0.25"/><rect x="390" y="150" width="2" height="2" fill="#20251f" opacity="0.25"/><rect x="390" y="160" width="2" height="2" fill="#20251f" opacity="0.25"/><rect x="390" y="170" width="2" height="2" fill="#20251f" opacity="0.25"/><rect x="400" y="0" width="2" height="2" fill="#20251f" opacity="0.25"/><rect x="400" y="10" width="2" height="2" fill="#20251f" opacity="0.25"/><rect x="400" y="20" width="2" height="2" fill="#20251f" opacity="0.25"/><rect x="400" y="30" width="2" height="2" fill="#20251f" opacity="0.25"/><rect x="400" y="40" width="2" height="2" fill="#20251f" opacity="0.25"/><rect x="400" y="50" width="2" height="2" fill="#20251f" opacity="0.25"/><rect x="400" y="60" width="2" height="2" fill="#20251f" opacity="0.25"/><rect x="400" y="70" width="2" height="2" fill="#20251f" opacity="0.25"/><rect x="400" y="80" width="2" height="2" fill="#20251f" opacity="0.25"/><rect x="400" y="90" width="2" height="2" fill="#20251f" opacity="0.25"/><rect x="400" y="100" width="2" height="2" fill="#20251f" opacity="0.25"/><rect x="400" y="110" width="2" height="2" fill="#20251f" opacity="0.25"/><rect x="400" y="120" width="2" height="2" fill="#20251f" opacity="0.25"/><rect x="400" y="130" width="2" height="2" fill="#20251f" opacity="0.25"/><rect x="400" y="140" width="2" height="2" fill="#20251f" opacity="0.25"/><rect x="400" y="150" width="2" height="2" fill="#20251f" opacity="0.25"/><rect x="400" y="160" width="2" height="2" fill="#20251f" opacity="0.25"/><rect x="400" y="170" width="2" height="2" fill="#20251f" opacity="0.25"/><rect x="410" y="0" width="2" height="2" fill="#20251f" opacity="0.25"/><rect x="410" y="10" width="2" height="2" fill="#20251f" opacity="0.25"/><rect x="410" y="20" width="2" height="2" fill="#20251f" opacity="0.25"/><rect x="410" y="30" width="2" height="2" fill="#20251f" opacity="0.25"/><rect x="410" y="40" width="2" height="2" fill="#20251f" opacity="0.25"/><rect x="410" y="50" width="2" height="2" fill="#20251f" opacity="0.25"/><rect x="410" y="60" width="2" height="2" fill="#20251f" opacity="0.25"/><rect x="410" y="70" width="2" height="2" fill="#20251f" opacity="0.25"/><rect x="410" y="80" width="2" height="2" fill="#20251f" opacity="0.25"/><rect x="410" y="90" width="2" height="2" fill="#20251f" opacity="0.25"/><rect x="410" y="100" width="2" height="2" fill="#20251f" opacity="0.25"/><rect x="410" y="110" width="2" height="2" fill="#20251f" opacity="0.25"/><rect x="410" y="120" width="2" height="2" fill="#20251f" opacity="0.25"/><rect x="410" y="130" width="2" height="2" fill="#20251f" opacity="0.25"/><rect x="410" y="140" width="2" height="2" fill="#20251f" opacity="0.25"/><rect x="410" y="150" width="2" height="2" fill="#20251f" opacity="0.25"/><rect x="410" y="160" width="2" height="2" fill="#20251f" opacity="0.25"/><rect x="410" y="170" width="2" height="2" fill="#20251f" opacity="0.25"/><rect x="420" y="0" width="2" height="2" fill="#20251f" opacity="0.25"/><rect x="420" y="10" width="2" height="2" fill="#20251f" opacity="0.25"/><rect x="420" y="20" width="2" height="2" fill="#20251f" opacity="0.25"/><rect x="420" y="30" width="2" height="2" fill="#20251f" opacity="0.25"/><rect x="420" y="40" width="2" height="2" fill="#20251f" opacity="0.25"/><rect x="420" y="50" width="2" height="2" fill="#20251f" opacity="0.25"/><rect x="420" y="60" width="2" height="2" fill="#20251f" opacity="0.25"/><rect x="420" y="70" width="2" height="2" fill="#20251f" opacity="0.25"/><rect x="420" y="80" width="2" height="2" fill="#20251f" opacity="0.25"/><rect x="420" y="90" width="2" height="2" fill="#20251f" opacity="0.25"/><rect x="420" y="100" width="2" height="2" fill="#20251f" opacity="0.25"/><rect x="420" y="110" width="2" height="2" fill="#20251f" opacity="0.25"/><rect x="420" y="120" width="2" height="2" fill="#20251f" opacity="0.25"/><rect x="420" y="130" width="2" height="2" fill="#20251f" opacity="0.25"/><rect x="420" y="140" width="2" height="2" fill="#20251f" opacity="0.25"/><rect x="420" y="150" width="2" height="2" fill="#20251f" opacity="0.25"/><rect x="420" y="160" width="2" height="2" fill="#20251f" opacity="0.25"/><rect x="420" y="170" width="2" height="2" fill="#20251f" opacity="0.25"/><rect x="430" y="0" width="2" height="2" fill="#20251f" opacity="0.25"/><rect x="430" y="10" width="2" height="2" fill="#20251f" opacity="0.25"/><rect x="430" y="20" width="2" height="2" fill="#20251f" opacity="0.25"/><rect x="430" y="30" width="2" height="2" fill="#20251f" opacity="0.25"/><rect x="430" y="40" width="2" height="2" fill="#20251f" opacity="0.25"/><rect x="430" y="50" width="2" height="2" fill="#20251f" opacity="0.25"/><rect x="430" y="60" width="2" height="2" fill="#20251f" opacity="0.25"/><rect x="430" y="70" width="2" height="2" fill="#20251f" opacity="0.25"/><rect x="430" y="80" width="2" height="2" fill="#20251f" opacity="0.25"/><rect x="430" y="90" width="2" height="2" fill="#20251f" opacity="0.25"/><rect x="430" y="100" width="2" height="2" fill="#20251f" opacity="0.25"/><rect x="430" y="110" width="2" height="2" fill="#20251f" opacity="0.25"/><rect x="430" y="120" width="2" height="2" fill="#20251f" opacity="0.25"/><rect x="430" y="130" width="2" height="2" fill="#20251f" opacity="0.25"/><rect x="430" y="140" width="2" height="2" fill="#20251f" opacity="0.25"/><rect x="430" y="150" width="2" height="2" fill="#20251f" opacity="0.25"/><rect x="430" y="160" width="2" height="2" fill="#20251f" opacity="0.25"/><rect x="430" y="170" width="2" height="2" fill="#20251f" opacity="0.25"/><rect x="440" y="0" width="2" height="2" fill="#20251f" opacity="0.25"/><rect x="440" y="10" width="2" height="2" fill="#20251f" opacity="0.25"/><rect x="440" y="20" width="2" height="2" fill="#20251f" opacity="0.25"/><rect x="440" y="30" width="2" height="2" fill="#20251f" opacity="0.25"/><rect x="440" y="40" width="2" height="2" fill="#20251f" opacity="0.25"/><rect x="440" y="50" width="2" height="2" fill="#20251f" opacity="0.25"/><rect x="440" y="60" width="2" height="2" fill="#20251f" opacity="0.25"/><rect x="440" y="70" width="2" height="2" fill="#20251f" opacity="0.25"/><rect x="440" y="80" width="2" height="2" fill="#20251f" opacity="0.25"/><rect x="440" y="90" width="2" height="2" fill="#20251f" opacity="0.25"/><rect x="440" y="100" width="2" height="2" fill="#20251f" opacity="0.25"/><rect x="440" y="110" width="2" height="2" fill="#20251f" opacity="0.25"/><rect x="440" y="120" width="2" height="2" fill="#20251f" opacity="0.25"/><rect x="440" y="130" width="2" height="2" fill="#20251f" opacity="0.25"/><rect x="440" y="140" width="2" height="2" fill="#20251f" opacity="0.25"/><rect x="440" y="150" width="2" height="2" fill="#20251f" opacity="0.25"/><rect x="440" y="160" width="2" height="2" fill="#20251f" opacity="0.25"/><rect x="440" y="170" width="2" height="2" fill="#20251f" opacity="0.25"/><rect x="450" y="0" width="2" height="2" fill="#20251f" opacity="0.25"/><rect x="450" y="10" width="2" height="2" fill="#20251f" opacity="0.25"/><rect x="450" y="20" width="2" height="2" fill="#20251f" opacity="0.25"/><rect x="450" y="30" width="2" height="2" fill="#20251f" opacity="0.25"/><rect x="450" y="40" width="2" height="2" fill="#20251f" opacity="0.25"/><rect x="450" y="50" width="2" height="2" fill="#20251f" opacity="0.25"/><rect x="450" y="60" width="2" height="2" fill="#20251f" opacity="0.25"/><rect x="450" y="70" width="2" height="2" fill="#20251f" opacity="0.25"/><rect x="450" y="80" width="2" height="2" fill="#20251f" opacity="0.25"/><rect x="450" y="90" width="2" height="2" fill="#20251f" opacity="0.25"/><rect x="450" y="100" width="2" height="2" fill="#20251f" opacity="0.25"/><rect x="450" y="110" width="2" height="2" fill="#20251f" opacity="0.25"/><rect x="450" y="120" width="2" height="2" fill="#20251f" opacity="0.25"/><rect x="450" y="130" width="2" height="2" fill="#20251f" opacity="0.25"/><rect x="450" y="140" width="2" height="2" fill="#20251f" opacity="0.25"/><rect x="450" y="150" width="2" height="2" fill="#20251f" opacity="0.25"/><rect x="450" y="160" width="2" height="2" fill="#20251f" opacity="0.25"/><rect x="450" y="170" width="2" height="2" fill="#20251f" opacity="0.25"/><rect x="460" y="0" width="2" height="2" fill="#20251f" opacity="0.25"/><rect x="460" y="10" width="2" height="2" fill="#20251f" opacity="0.25"/><rect x="460" y="20" width="2" height="2" fill="#20251f" opacity="0.25"/><rect x="460" y="30" width="2" height="2" fill="#20251f" opacity="0.25"/><rect x="460" y="40" width="2" height="2" fill="#20251f" opacity="0.25"/><rect x="460" y="50" width="2" height="2" fill="#20251f" opacity="0.25"/><rect x="460" y="60" width="2" height="2" fill="#20251f" opacity="0.25"/><rect x="460" y="70" width="2" height="2" fill="#20251f" opacity="0.25"/><rect x="460" y="80" width="2" height="2" fill="#20251f" opacity="0.25"/><rect x="460" y="90" width="2" height="2" fill="#20251f" opacity="0.25"/><rect x="460" y="100" width="2" height="2" fill="#20251f" opacity="0.25"/><rect x="460" y="110" width="2" height="2" fill="#20251f" opacity="0.25"/><rect x="460" y="120" width="2" height="2" fill="#20251f" opacity="0.25"/><rect x="460" y="130" width="2" height="2" fill="#20251f" opacity="0.25"/><rect x="460" y="140" width="2" height="2" fill="#20251f" opacity="0.25"/><rect x="460" y="150" width="2" height="2" fill="#20251f" opacity="0.25"/><rect x="460" y="160" width="2" height="2" fill="#20251f" opacity="0.25"/><rect x="460" y="170" width="2" height="2" fill="#20251f" opacity="0.25"/><rect x="470" y="0" width="2" height="2" fill="#20251f" opacity="0.25"/><rect x="470" y="10" width="2" height="2" fill="#20251f" opacity="0.25"/><rect x="470" y="20" width="2" height="2" fill="#20251f" opacity="0.25"/><rect x="470" y="30" width="2" height="2" fill="#20251f" opacity="0.25"/><rect x="470" y="40" width="2" height="2" fill="#20251f" opacity="0.25"/><rect x="470" y="50" width="2" height="2" fill="#20251f" opacity="0.25"/><rect x="470" y="60" width="2" height="2" fill="#20251f" opacity="0.25"/><rect x="470" y="70" width="2" height="2" fill="#20251f" opacity="0.25"/><rect x="470" y="80" width="2" height="2" fill="#20251f" opacity="0.25"/><rect x="470" y="90" width="2" height="2" fill="#20251f" opacity="0.25"/><rect x="470" y="100" width="2" height="2" fill="#20251f" opacity="0.25"/><rect x="470" y="110" width="2" height="2" fill="#20251f" opacity="0.25"/><rect x="470" y="120" width="2" height="2" fill="#20251f" opacity="0.25"/><rect x="470" y="130" width="2" height="2" fill="#20251f" opacity="0.25"/><rect x="470" y="140" width="2" height="2" fill="#20251f" opacity="0.25"/><rect x="470" y="150" width="2" height="2" fill="#20251f" opacity="0.25"/><rect x="470" y="160" width="2" height="2" fill="#20251f" opacity="0.25"/><rect x="470" y="170" width="2" height="2" fill="#20251f" opacity="0.25"/><path d="M0 0l80 95l-55 -60Z" fill="#20251f"/><path d="M120 0l80 95l-55 -60Z" fill="#20251f"/><path d="M360 0l-80 95l55 -60Z" fill="#20251f"/><path d="M480 0l-80 95l55 -60Z" fill="#20251f"/><path d="M0 130l80 25l-55 -10Z" fill="#20251f"/><path d="M480 100l-80 25l55 -10Z" fill="#20251f"/><rect x="0" y="172" width="480" height="68" fill="#f4d45c"/><path d="M18 231L90 181H390L462 231ZM240 181V231M92 181L53 212H121L139 181M388 181L427 212H359L341 181" fill="none" stroke="#20251f" stroke-width="1" opacity="0.5"/><path d="M209 207L215 198H264L271 207L264 217H215Z" fill="none" stroke="#20251f" stroke-width="1" opacity="0.4"/><rect x="0" y="171" width="480" height="1" fill="#20251f" opacity="0.55"/></svg>
